<svg width="72" height="72" viewBox="0 0 72 72" xmlns="http://www.w3.org/2000/svg" role="img" aria-labelledby="orcid-title">
  <title id="orcid-title">ORCID iD</title>
  <path fill="#111827" d="M72 36c0 19.884-16.116 36-36 36S0 55.884 0 36 16.116 0 36 0s36 16.116 36 36Z"/>
  <g fill="#fff">
    <path d="M23.906 52.035h-4.342V22.054h4.342v29.981Z"/>
    <path d="M30.278 22.054h11.729c11.165 0 16.071 7.922 16.071 15.004 0 7.698-6.062 15.004-16.014 15.004H30.278V22.054Zm4.342 26.118h6.908c9.84 0 12.095-7.418 12.095-11.113 0-6.019-3.863-11.113-12.321-11.113H34.62v22.226Z"/>
    <path d="M24.583 15.812a2.868 2.868 0 0 1-2.848 2.827 2.833 2.833 0 0 1-2.847-2.827 2.832 2.832 0 0 1 2.847-2.827 2.868 2.868 0 0 1 2.848 2.827Z"/>
  </g>
</svg>
